<svg
    xmlns="http://www.w3.org/2000/svg"
    viewBox="0 0 99 173"
    id="vector">
    <path
        id="path"
        d="M 9.115 1.373 L 1.374 9.108 C 0.792 9.69 0.373 10.414 0.159 11.209 C -0.054 12.004 -0.054 12.842 0.159 13.637 C 0.373 14.432 0.792 15.156 1.374 15.738 L 72.023 86.5 L 1.374 157.262 C 0.792 157.844 0.373 158.568 0.159 159.363 C -0.054 160.158 -0.054 160.996 0.159 161.791 C 0.373 162.586 0.792 163.31 1.374 163.892 L 9.115 171.627 C 9.996 172.504 11.189 172.998 12.432 172.998 C 13.676 172.998 14.869 172.504 15.75 171.627 L 97.626 89.815 C 98.208 89.233 98.627 88.508 98.84 87.714 C 99.053 86.919 99.053 86.081 98.84 85.286 C 98.627 84.492 98.208 83.767 97.626 83.185 L 15.75 1.373 C 14.87 0.494 13.676 0 12.432 0 C 11.189 0 9.995 0.494 9.115 1.373 Z"
        fill="#474747"/>
</svg>
