<svg
    xmlns="http://www.w3.org/2000/svg"
    viewBox="0 0 175 175"
    id="vector">
    <path
        id="path_1"
        d="M 1.379 130.846 L 4.153 133.621 C 4.737 134.205 5.465 134.626 6.263 134.839 C 7.061 135.053 7.902 135.053 8.7 134.839 C 9.498 134.626 10.226 134.205 10.81 133.621 L 87.5 56.921 L 164.19 133.621 C 164.774 134.205 165.502 134.626 166.3 134.839 C 167.098 135.053 167.939 135.053 168.737 134.839 C 169.535 134.626 170.263 134.205 170.847 133.621 L 173.621 130.846 C 174.503 129.963 174.999 128.765 174.999 127.517 C 174.999 126.269 174.503 125.071 173.621 124.188 L 90.829 41.379 C 90.245 40.795 89.517 40.374 88.719 40.16 C 87.92 39.946 87.08 39.946 86.281 40.16 C 85.483 40.374 84.755 40.795 84.171 41.379 L 1.379 124.189 C 0.497 125.072 0.001 126.27 0.001 127.517 C 0.001 128.765 0.497 129.963 1.379 130.846 Z"
        fill="#474747"/>
</svg>
