<svg
    xmlns="http://www.w3.org/2000/svg"
    viewBox="0 0 231 200"
    id="vector">
    <path
        id="path"
        d="M 154 34.62 C 158.588 34.615 162.991 32.786 166.232 29.538 C 169.473 26.291 171.294 21.885 171.29 17.297 C 171.286 12.709 169.459 8.305 166.213 5.063 C 162.967 1.821 158.561 -0.002 153.973 0 C 149.385 0.002 144.981 1.828 141.738 5.072 C 138.494 8.317 136.67 12.722 136.67 17.31 C 136.658 20.354 137.452 23.348 138.971 25.986 C 140.491 28.623 142.682 30.812 145.322 32.329 C 147.961 33.845 150.956 34.636 154 34.62 Z M 182.88 103.85 C 170.135 103.861 157.903 108.938 148.898 117.957 C 139.892 126.976 134.832 139.215 134.84 151.96 C 134.848 164.705 139.923 176.938 148.94 185.945 C 157.957 194.953 170.195 200.015 182.94 200.01 C 195.685 200.005 207.919 194.932 216.928 185.917 C 225.938 176.902 231.003 164.665 231 151.92 C 231.079 143.455 228.899 135.119 224.686 127.776 C 220.473 120.433 214.378 114.344 207.031 110.139 C 199.683 105.934 191.345 103.763 182.88 103.85 Z M 182.88 185.58 C 164.59 185.58 149.19 170.19 149.19 151.93 C 149.19 133.67 164.59 118.28 182.88 118.28 C 201.17 118.28 216.57 133.66 216.57 151.93 C 216.57 170.2 201.16 185.58 182.88 185.58 Z M 142.45 84.62 L 182.87 84.62 L 182.88 67.31 L 152.08 67.31 L 133.79 35.58 C 130.9 30.77 126.09 27.89 119.35 27.89 C 117.2 27.872 115.068 28.289 113.084 29.115 C 111.099 29.942 109.302 31.161 107.8 32.7 L 72.19 68.27 C 70.651 69.769 69.431 71.565 68.605 73.548 C 67.778 75.531 67.362 77.661 67.38 79.81 C 67.38 85.58 70.27 91.35 75.08 94.23 L 107.8 113.46 L 107.8 161.54 L 125.13 161.54 L 125.13 99.04 L 103.95 82.69 L 126.09 60.58 Z M 48.13 103.85 C 37.884 103.702 27.855 106.834 19.514 112.784 C 11.172 118.735 4.947 127.2 1.753 136.936 C -1.442 146.672 -1.442 157.178 1.753 166.914 C 4.947 176.65 11.172 185.115 19.514 191.066 C 27.855 197.016 37.884 200.148 48.13 200 C 58.376 200.148 68.405 197.016 76.746 191.066 C 85.088 185.115 91.313 176.65 94.507 166.914 C 97.702 157.178 97.702 146.672 94.507 136.936 C 91.313 127.2 85.088 118.735 76.746 112.784 C 68.405 106.834 58.376 103.702 48.13 103.85 Z M 48.13 185.58 C 29.84 185.58 14.44 170.19 14.44 151.93 C 14.44 133.67 29.84 118.28 48.13 118.28 C 66.42 118.28 81.82 133.66 81.82 151.93 C 81.82 170.2 66.41 185.58 48.13 185.58 Z"
        fill="#474747"/>
</svg>
