<svg
    xmlns="http://www.w3.org/2000/svg"
    viewBox="0 0 1202 1202"
    id="vector">
    <path
        id="path"
        d="M 88.5 98.5 L 903.5 98.5 C 959.174 98.5 1012.625 120.64 1051.992 160.008 C 1091.36 199.375 1113.5 252.826 1113.5 308.5 L 1113.5 913.5 C 1113.5 969.174 1091.36 1022.625 1051.992 1061.992 C 1012.625 1101.36 959.174 1123.5 903.5 1123.5 L 298.5 1123.5 C 242.826 1123.5 189.375 1101.36 150.008 1061.992 C 110.64 1022.625 88.5 969.174 88.5 913.5 L 88.5 98.5 Z"
        fill="#20baff"/>
    <path
        id="path_1"
        d="M 901.54 908.67 L 601.4 908.67 C 435.9 908.67 301.26 774.03 301.26 608.53 C 301.26 443.03 435.9 308.39 601.4 308.39 L 901.54 308.39 L 901.54 415.58 L 601.4 415.58 C 495.01 415.58 408.45 502.14 408.45 608.53 C 408.45 714.92 495.01 801.48 601.4 801.48 L 716.79 801.48 L 716.79 830.66 C 716.795 833.105 717.77 835.452 719.499 837.181 C 721.228 838.91 723.575 839.885 726.02 839.89 C 727.657 839.889 729.263 839.447 730.67 838.61 L 794 801.47 L 794.34 801.47 L 794.34 801.27 L 878.42 751.96 C 880.278 750.871 881.697 749.165 882.43 747.14 C 883.162 745.115 883.162 742.895 882.43 740.87 C 881.697 738.845 880.278 737.139 878.42 736.05 L 794.34 686.74 L 794.34 686.56 L 794.03 686.56 L 730.67 649.4 C 728.796 648.289 726.587 647.88 724.439 648.245 C 722.292 648.609 720.342 649.725 718.94 651.392 C 717.537 653.06 716.772 655.172 716.78 657.35 L 716.78 686.55 L 607.46 686.57 L 607.46 686.58 L 601.79 686.58 C 590.371 686.736 579.196 683.239 569.903 676.603 C 560.61 669.967 553.676 660.532 550.117 649.681 C 546.559 638.83 546.559 627.12 550.117 616.269 C 553.676 605.418 560.61 595.983 569.903 589.347 C 579.196 582.711 590.371 579.214 601.79 579.37 L 607.46 579.36 L 607.46 579.37 L 901.54 579.37 L 901.54 908.67 L 901.54 908.67 Z"
        fill="#ffffff"/>
</svg>
