<svg
    xmlns="http://www.w3.org/2000/svg"
    viewBox="0 0 1202 1373"
    id="vector">
    <path
        id="path_2"
        d="M 841.4 772.714 C 764.396 772.714 727.382 815.643 601 815.643 C 474.618 815.643 437.871 772.714 360.6 772.714 C 265.007 772.74 173.24 810.766 105.645 878.36 C 38.051 945.954 0.025 1037.722 0 1133.314 L 0 1244.929 C 0.009 1279.069 13.59 1311.843 37.731 1335.984 C 61.871 1360.125 94.645 1373.705 128.786 1373.714 L 1073.214 1373.714 C 1107.355 1373.705 1140.129 1360.125 1164.269 1335.984 C 1188.41 1311.843 1201.991 1279.069 1202 1244.929 L 1202 1133.314 C 1201.975 1037.722 1163.949 945.954 1096.355 878.36 C 1028.76 810.766 936.993 772.74 841.4 772.714 Z M 1116.143 1244.929 C 1116.11 1256.3 1111.574 1267.207 1103.533 1275.248 C 1095.493 1283.288 1084.585 1287.825 1073.214 1287.857 L 128.786 1287.857 C 117.415 1287.825 106.507 1283.288 98.467 1275.248 C 90.426 1267.207 85.89 1256.3 85.857 1244.929 L 85.857 1133.314 C 85.906 1060.491 114.888 990.59 166.382 939.096 C 217.876 887.602 287.777 858.621 360.6 858.571 C 413.186 858.571 465.504 901.5 601 901.5 C 736.228 901.5 788.814 858.571 841.4 858.571 C 914.223 858.621 984.124 887.602 1035.618 939.096 C 1087.112 990.59 1116.094 1060.491 1116.143 1133.314 Z M 601 686.857 C 692.048 686.857 779.46 650.65 843.841 586.269 C 908.221 521.889 944.429 434.477 944.429 343.429 C 944.429 252.381 908.221 164.969 843.841 100.588 C 779.46 36.207 692.048 0 601 0 C 509.952 0 422.54 36.207 358.159 100.588 C 293.779 164.969 257.571 252.381 257.571 343.429 C 257.571 434.477 293.779 521.889 358.159 586.269 C 422.54 650.65 509.952 686.857 601 686.857 Z M 601 85.857 C 669.253 85.966 734.748 113.156 783.01 161.418 C 831.272 209.68 858.462 275.176 858.571 343.429 C 858.462 411.681 831.272 477.177 783.01 525.439 C 734.748 573.701 669.253 600.891 601 601 C 532.747 600.891 467.252 573.701 418.99 525.439 C 370.728 477.177 343.538 411.681 343.429 343.429 C 343.538 275.176 370.728 209.68 418.99 161.418 C 467.252 113.156 532.747 85.966 601 85.857 Z"
        fill="#20baff"/>
</svg>
