<svg
    xmlns="http://www.w3.org/2000/svg"
    viewBox="0 0 225 200"
    id="vector">
    <path
        id="path"
        d="M 215.625 25 L 175 25 L 175 9.375 C 175.004 7.728 174.573 6.11 173.751 4.683 C 172.928 3.256 171.744 2.072 170.317 1.249 C 168.89 0.427 167.272 -0.004 165.625 0 L 59.375 0 C 57.728 -0.004 56.11 0.427 54.683 1.249 C 53.256 2.072 52.072 3.256 51.249 4.683 C 50.427 6.11 49.996 7.728 50 9.375 L 50 25 L 9.375 25 C 7.728 24.996 6.11 25.427 4.683 26.249 C 3.256 27.072 2.072 28.256 1.249 29.683 C 0.427 31.11 -0.004 32.728 0 34.375 L 0 56.25 C 0 82.227 30.43 107.7 67.149 111.875 C 79.414 132.226 93.749 140.625 93.749 140.625 L 93.749 168.75 L 75 168.75 C 61.211 168.75 50 176.836 50 190.625 L 50 195.313 C 50.003 196.555 50.499 197.746 51.377 198.624 C 52.255 199.502 53.446 199.997 54.688 200 L 170.313 200 C 171.555 199.997 172.746 199.501 173.623 198.623 C 174.501 197.746 174.997 196.555 175 195.313 L 175 190.625 C 175 176.836 163.789 168.75 150 168.75 L 131.25 168.75 L 131.25 140.625 C 131.25 140.625 145.586 132.225 157.85 111.875 C 194.688 107.656 225 82.148 225 56.25 L 225 34.375 C 225.004 32.728 224.573 31.11 223.751 29.683 C 222.928 28.256 221.744 27.072 220.317 26.249 C 218.89 25.427 217.272 24.996 215.625 25 Z M 25 56.25 L 25 50 L 50.078 50 C 50.372 61.385 52.051 72.693 55.078 83.672 C 36.523 77.266 25 64.18 25 56.25 Z M 200 56.25 C 200 64.141 188.515 77.266 169.922 83.672 C 172.949 72.693 174.628 61.385 174.922 50 L 200 50 Z M 150.274 58.086 L 134.8 73.164 L 138.472 94.492 C 138.666 95.645 138.421 96.83 137.786 97.812 C 137.151 98.794 136.171 99.503 135.04 99.8 C 133.909 100.096 132.707 99.958 131.672 99.414 L 112.539 89.336 L 93.4 99.414 C 92.365 99.957 91.164 100.093 90.033 99.797 C 88.903 99.5 87.923 98.791 87.288 97.81 C 86.653 96.829 86.408 95.645 86.6 94.492 L 90.272 73.164 L 74.8 58.086 C 73.962 57.264 73.461 56.158 73.397 54.986 C 73.333 53.814 73.71 52.659 74.454 51.751 C 75.198 50.843 76.255 50.246 77.417 50.078 L 98.823 46.953 L 108.393 27.578 C 108.912 26.529 109.805 25.711 110.896 25.287 C 111.987 24.863 113.199 24.863 114.29 25.287 C 115.381 25.711 116.274 26.529 116.793 27.578 L 126.363 46.953 L 147.769 50.078 C 148.916 50.272 149.952 50.884 150.674 51.797 C 151.397 52.709 151.756 53.857 151.682 55.018 C 151.608 56.179 151.106 57.273 150.274 58.086 Z"
        fill="#20baff"/>
</svg>
