<svg
    xmlns="http://www.w3.org/2000/svg"
    viewBox="0 0 137 125"
    id="vector">
    <path
        id="path"
        d="M 135.622 65.82 C 136.206 65.238 136.625 64.512 136.839 63.716 C 137.053 62.919 137.053 62.081 136.839 61.284 C 136.625 60.488 136.206 59.762 135.622 59.18 L 78.267 1.38 C 77.684 0.797 76.958 0.377 76.162 0.163 C 75.365 -0.05 74.527 -0.05 73.73 0.163 C 72.934 0.377 72.208 0.797 71.625 1.38 L 63.886 9.11 C 63.302 9.692 62.883 10.418 62.669 11.214 C 62.455 12.011 62.455 12.849 62.669 13.646 C 62.883 14.442 63.302 15.168 63.886 15.75 L 110.186 62.5 L 63.886 109.251 C 63.302 109.833 62.883 110.559 62.669 111.355 C 62.455 112.152 62.455 112.99 62.669 113.787 C 62.883 114.583 63.302 115.309 63.886 115.891 L 71.622 123.624 C 72.205 124.207 72.931 124.627 73.727 124.841 C 74.524 125.054 75.362 125.054 76.159 124.841 C 76.955 124.627 77.681 124.207 78.264 123.624 Z M 73.11 59.18 L 15.755 1.38 C 15.172 0.797 14.446 0.377 13.65 0.163 C 12.853 -0.05 12.015 -0.05 11.218 0.163 C 10.422 0.377 9.696 0.797 9.113 1.38 L 1.377 9.11 C 0.793 9.692 0.374 10.418 0.16 11.214 C -0.054 12.011 -0.054 12.849 0.16 13.646 C 0.374 14.442 0.793 15.168 1.377 15.75 L 47.677 62.501 L 1.377 109.251 C 0.793 109.833 0.374 110.559 0.16 111.355 C -0.054 112.152 -0.054 112.99 0.16 113.787 C 0.374 114.583 0.793 115.309 1.377 115.891 L 9.113 123.624 C 9.696 124.207 10.422 124.627 11.218 124.841 C 12.015 125.054 12.853 125.054 13.65 124.841 C 14.446 124.627 15.172 124.207 15.755 123.624 L 73.11 65.824 C 73.694 65.242 74.115 64.515 74.329 63.718 C 74.543 62.922 74.543 62.082 74.329 61.286 C 74.115 60.489 73.694 59.762 73.11 59.18 Z"
        fill="#20baff"/>
</svg>
