<svg
    xmlns="http://www.w3.org/2000/svg"
    viewBox="0 0 268 200"
    id="vector">
    <path
        id="path"
        d="M 242.324 119.345 L 202.141 116.466 L 175.583 72.094 L 162.307 49.876 L 162.307 43.722 C 162.317 41.096 161.468 38.537 159.891 36.437 C 158.314 34.337 156.092 32.809 153.567 32.087 C 151.042 31.365 148.349 31.488 145.9 32.437 L 107.712 47.21 L 110.6 37.5 C 111.707 33.541 111.43 29.32 109.816 25.539 C 108.202 21.758 105.344 18.639 101.719 16.7 L 71.754 0.554 C 70.705 -0.01 69.478 -0.149 68.329 0.168 C 67.181 0.484 66.198 1.232 65.586 2.254 L 21.637 72.843 L 20.709 72.304 C 20.003 71.897 19.203 71.684 18.388 71.686 C 17.574 71.688 16.774 71.905 16.07 72.315 C 15.367 72.725 14.783 73.314 14.38 74.021 C 14.351 74.068 14.327 74.116 14.3 74.165 L 0.542 100.144 C -0.029 101.222 -0.154 102.482 0.193 103.651 C 0.541 104.821 1.333 105.808 2.4 106.4 L 169.731 199.42 C 170.418 199.801 171.191 200 171.976 200 L 241.142 200 C 248.527 199.982 255.612 197.032 260.826 191.802 C 266.041 186.571 268.97 179.479 268.966 172.093 L 268.966 148.038 C 268.952 140.782 266.2 133.793 261.263 128.476 C 256.325 123.158 249.559 119.896 242.324 119.345 Z M 192.449 118.345 L 187.149 120.117 L 145.658 66.01 L 156.325 57.977 Z M 71.262 10.847 L 97.329 24.879 C 99.084 25.812 100.471 27.315 101.261 29.139 C 102.052 30.963 102.199 33.002 101.679 34.921 L 97.848 47.871 L 71.229 31.861 L 62.011 26.312 Z M 43.805 55.237 L 46.179 51.516 L 61.437 62.9 C 65.252 65.777 68.224 69.626 70.043 74.044 C 71.862 78.463 72.461 83.289 71.777 88.018 L 71.2 101.458 L 29.753 77.5 Z M 241.142 190.7 L 173.168 190.7 L 10.861 100.466 L 20.233 82.793 L 173.9 171.474 C 174.605 171.882 175.405 172.096 176.219 172.094 L 259.69 172.094 C 259.697 177.019 257.746 181.75 254.269 185.238 C 250.792 188.726 246.067 190.692 241.142 190.7 Z M 259.69 162.791 L 177.457 162.791 L 145.65 144.424 L 156.343 133.489 C 157.191 132.608 157.657 131.427 157.641 130.205 C 157.624 128.982 157.125 127.815 156.253 126.957 C 155.382 126.1 154.206 125.621 152.983 125.625 C 151.761 125.628 150.588 126.115 149.721 126.977 L 137.35 139.628 L 119.727 129.442 L 137.4 115.262 C 138.356 114.491 138.969 113.372 139.103 112.151 C 139.237 110.93 138.881 109.704 138.114 108.744 C 137.348 107.784 136.231 107.167 135.011 107.027 C 133.79 106.888 132.563 107.238 131.6 108 L 111.088 124.461 L 95.988 115.753 L 118.9 96.6 C 119.844 95.812 120.437 94.68 120.549 93.455 C 120.661 92.231 120.283 91.01 119.497 90.064 C 118.712 89.118 117.582 88.52 116.358 88.405 C 115.133 88.289 113.912 88.664 112.963 89.446 L 87.423 110.8 L 80.253 106.661 L 81 88.806 C 81.846 82.494 80.991 76.069 78.524 70.197 C 76.056 64.326 72.065 59.219 66.964 55.406 L 51.164 43.623 L 57.133 34.223 L 98.182 58.923 C 98.734 59.242 99.348 59.44 99.982 59.505 C 100.093 59.505 100.189 59.542 100.302 59.55 C 100.415 59.558 100.483 59.583 100.571 59.583 C 101.145 59.585 101.715 59.48 102.25 59.272 L 149.225 41.1 C 149.793 40.881 150.418 40.854 151.003 41.023 C 151.588 41.192 152.102 41.548 152.466 42.036 C 152.83 42.525 153.024 43.119 153.019 43.728 L 153.019 48.845 L 136.319 61.402 C 135.336 62.145 134.686 63.248 134.513 64.468 C 134.341 65.688 134.659 66.928 135.398 67.914 C 135.408 67.928 135.419 67.943 135.429 67.955 L 181.803 128.422 C 182.386 129.189 183.196 129.755 184.118 130.038 C 185.04 130.32 186.027 130.307 186.941 129.999 L 199.976 125.64 L 241.649 128.626 C 246.544 128.996 251.123 131.201 254.465 134.795 C 257.807 138.39 259.673 143.117 259.686 148.026 Z M 259.69 162.791"
        fill="#ffffff"/>
    <path
        id="path_1"
        d="M 28.271 134.798 L 4.712 134.798 C 3.715 134.795 2.742 135.108 1.935 135.693 C 1.127 136.277 0.525 137.103 0.217 138.051 C -0.092 138.999 -0.092 140.021 0.217 140.969 C 0.525 141.917 1.127 142.743 1.935 143.327 C 2.742 143.912 3.715 144.225 4.712 144.222 L 28.271 144.222 C 29.268 144.225 30.241 143.912 31.048 143.327 C 31.856 142.743 32.458 141.917 32.766 140.969 C 33.075 140.021 33.075 138.999 32.766 138.051 C 32.458 137.103 31.856 136.277 31.048 135.693 C 30.241 135.108 29.268 134.795 28.271 134.798 Z M 28.271 134.798"
        fill="#ffffff"/>
    <path
        id="path_2"
        d="M 0 167.017 C 0 168.266 0.497 169.466 1.38 170.349 C 2.263 171.232 3.463 171.729 4.712 171.729 L 65.966 171.729 C 67.215 171.729 68.415 171.232 69.298 170.349 C 70.181 169.466 70.678 168.266 70.678 167.017 C 70.678 165.768 70.181 164.568 69.298 163.685 C 68.415 162.802 67.215 162.305 65.966 162.305 L 4.712 162.305 C 3.463 162.305 2.264 162.802 1.38 163.685 C 0.497 164.569 0 165.768 0 167.017 Z M 0 167.017"
        fill="#ffffff"/>
    <path
        id="path_3"
        d="M 117.8 190.578 L 4.712 190.578 C 3.715 190.575 2.743 190.888 1.935 191.473 C 1.127 192.057 0.526 192.883 0.217 193.831 C -0.092 194.779 -0.092 195.8 0.217 196.748 C 0.526 197.696 1.127 198.522 1.935 199.106 C 2.743 199.691 3.715 200.004 4.712 200.001 L 117.8 200.001 C 119.047 199.997 120.242 199.499 121.122 198.616 C 122.002 197.733 122.497 196.536 122.497 195.29 C 122.497 194.043 122.002 192.846 121.122 191.963 C 120.242 191.08 119.047 190.582 117.8 190.578 Z M 117.8 190.578"
        fill="#ffffff"/>
</svg>
