<svg
    xmlns="http://www.w3.org/2000/svg"
    viewBox="0 0 205 200"
    id="vector">
    <path
        id="path"
        d="M 204.867 109.624 C 203.021 90.805 194.789 73.172 181.547 59.674 C 170.747 48.661 156.994 40.996 141.947 37.602 L 141.947 27.262 C 145.185 26.412 148.008 24.417 149.89 21.648 C 151.772 18.879 152.589 15.52 152.188 12.197 C 151.786 8.873 150.194 5.805 147.708 3.563 C 145.221 1.322 142.004 0.055 138.657 0 L 109.789 0 C 106.442 0.055 103.225 1.322 100.738 3.563 C 98.252 5.805 96.66 8.873 96.258 12.197 C 95.857 15.52 96.674 18.879 98.556 21.648 C 100.438 24.417 103.261 26.412 106.499 27.262 L 106.499 37.631 C 91.498 41.038 77.79 48.692 67.019 59.675 C 64.587 62.143 62.314 64.762 60.212 67.516 C 60.112 67.508 60.012 67.501 59.912 67.501 L 31.338 67.501 C 30.27 67.518 29.251 67.954 28.501 68.715 C 27.752 69.476 27.332 70.503 27.332 71.57 C 27.332 72.638 27.752 73.665 28.501 74.426 C 29.251 75.187 30.27 75.623 31.338 75.64 L 54.756 75.64 C 51.845 80.591 49.46 85.833 47.642 91.281 L 4.009 91.281 C 2.941 91.298 1.922 91.734 1.172 92.495 C 0.423 93.256 0.003 94.283 0.003 95.35 C 0.003 96.418 0.423 97.445 1.172 98.206 C 1.922 98.967 2.941 99.403 4.009 99.42 L 45.377 99.42 C 44.224 104.56 43.558 109.797 43.387 115.062 L 25.658 115.062 C 24.59 115.079 23.571 115.515 22.821 116.276 C 22.072 117.037 21.652 118.064 21.652 119.132 C 21.652 120.199 22.072 121.226 22.821 121.987 C 23.571 122.748 24.59 123.184 25.658 123.201 L 43.515 123.201 C 43.852 128.482 44.689 133.72 46.015 138.843 L 20.046 138.843 C 18.978 138.86 17.959 139.296 17.209 140.057 C 16.46 140.818 16.04 141.845 16.04 142.912 C 16.04 143.98 16.46 145.007 17.209 145.768 C 17.959 146.529 18.978 146.965 20.046 146.982 L 48.577 146.982 C 52.61 157.825 58.896 167.692 67.019 175.929 C 80.179 189.311 97.607 197.688 116.278 199.605 Q 120.251 200.005 124.224 200.005 C 139.935 200.001 155.304 195.387 168.419 186.738 C 169.312 186.14 169.936 185.214 170.155 184.162 C 170.374 183.109 170.172 182.012 169.591 181.107 C 169.213 180.51 168.683 180.025 168.056 179.702 C 167.428 179.378 166.726 179.227 166.02 179.265 C 165.315 179.303 164.633 179.529 164.044 179.918 C 150.04 189.102 133.276 193.152 116.624 191.375 C 99.971 189.598 84.439 182.101 72.689 170.169 C 59.015 156.173 51.352 137.365 51.352 117.798 C 51.352 98.231 59.015 79.423 72.689 65.427 C 81.684 56.261 92.96 49.655 105.355 46.292 C 117.749 42.929 130.818 42.929 143.212 46.292 C 155.607 49.655 166.883 56.261 175.878 65.427 C 187.657 77.539 195.02 93.273 196.771 110.078 C 198.523 126.882 194.563 143.796 185.534 158.077 C 184.955 158.982 184.753 160.08 184.974 161.132 C 185.194 162.184 185.819 163.109 186.713 163.706 C 187.303 164.094 187.986 164.319 188.691 164.355 C 189.397 164.392 190.099 164.24 190.726 163.915 C 191.353 163.59 191.882 163.104 192.259 162.506 C 202.245 146.783 206.685 128.161 204.867 109.624 Z M 104.176 13.838 C 104.166 12.339 104.752 10.895 105.804 9.827 C 106.855 8.759 108.29 8.151 109.789 8.138 L 138.655 8.138 C 140.133 8.186 141.537 8.808 142.565 9.87 C 143.594 10.933 144.17 12.356 144.17 13.835 C 144.17 15.314 143.594 16.737 142.565 17.8 C 141.537 18.862 140.133 19.484 138.655 19.532 L 109.789 19.532 C 108.291 19.519 106.857 18.912 105.806 17.845 C 104.754 16.778 104.167 15.336 104.176 13.838 Z M 114.517 36.238 L 114.517 27.672 L 133.926 27.672 L 133.926 36.217 C 127.479 35.439 120.962 35.444 114.517 36.232 Z"
        fill="#ffffff"/>
    <path
        id="path_1"
        d="M 178.416 169.095 C 177.478 169.095 176.568 169.42 175.842 170.015 C 175.117 170.609 174.62 171.438 174.436 172.358 C 174.253 173.278 174.394 174.234 174.836 175.062 C 175.278 175.889 175.994 176.539 176.861 176.898 C 177.728 177.257 178.693 177.305 179.591 177.033 C 180.488 176.76 181.265 176.185 181.786 175.405 C 182.307 174.625 182.542 173.687 182.45 172.754 C 182.359 171.82 181.945 170.946 181.282 170.283 C 180.521 169.525 179.49 169.098 178.416 169.095 Z"
        fill="#ffffff"/>
    <path
        id="path_2"
        d="M 123.373 55.218 C 106.7 55.218 90.692 61.849 78.903 73.639 C 67.113 85.429 60.483 101.436 60.483 118.11 C 60.483 134.783 67.114 150.79 78.904 162.58 C 90.694 174.37 106.701 181 123.374 181 C 140.048 181 156.055 174.369 167.845 162.58 C 179.635 150.79 186.265 134.782 186.265 118.109 C 186.246 101.441 179.609 85.445 167.823 73.659 C 156.037 61.873 140.041 55.237 123.373 55.218 Z M 123.373 172.893 C 108.849 172.893 94.906 167.117 84.636 156.848 C 74.366 146.578 68.59 132.634 68.59 118.11 C 68.59 103.587 74.365 89.643 84.635 79.373 C 94.905 69.103 108.849 63.327 123.372 63.327 C 137.896 63.327 151.84 69.102 162.11 79.372 C 172.38 89.642 178.156 103.585 178.156 118.109 C 178.14 132.628 172.359 146.562 162.093 156.829 C 151.826 167.096 137.892 172.877 123.373 172.893 Z"
        fill="#ffffff"/>
    <path
        id="path_3"
        d="M 149.759 86.394 L 129.679 106.474 C 127.948 105.619 126.044 105.175 124.114 105.175 C 122.184 105.175 120.28 105.619 118.549 106.474 L 109.562 97.487 C 108.801 96.731 107.771 96.307 106.698 96.308 C 105.625 96.31 104.596 96.737 103.838 97.496 C 103.079 98.254 102.652 99.283 102.65 100.356 C 102.648 101.428 103.072 102.459 103.828 103.22 L 112.815 112.207 C 111.546 114.779 111.193 117.708 111.813 120.507 C 112.434 123.307 113.992 125.812 116.228 127.607 C 118.464 129.402 121.248 130.381 124.115 130.381 C 126.982 130.381 129.766 129.402 132.002 127.607 C 134.238 125.812 135.796 123.307 136.417 120.507 C 137.037 117.708 136.684 114.779 135.415 112.207 L 154.905 92.715 L 154.905 92.715 L 155.494 92.126 C 156.243 91.364 156.661 90.335 156.656 89.267 C 156.652 88.198 156.225 87.174 155.469 86.418 C 154.713 85.662 153.689 85.235 152.62 85.231 C 151.552 85.226 150.523 85.644 149.761 86.393 Z M 124.114 122.262 C 122.924 122.262 121.781 121.789 120.939 120.947 C 120.097 120.105 119.624 118.962 119.624 117.772 C 119.624 116.582 120.097 115.439 120.939 114.597 C 121.781 113.755 122.924 113.282 124.114 113.282 C 125.304 113.282 126.447 113.755 127.289 114.597 C 128.131 115.439 128.604 116.582 128.604 117.772 C 128.602 118.962 128.128 120.103 127.287 120.944 C 126.446 121.786 125.304 122.259 124.114 122.26 Z"
        fill="#ffffff"/>
    <path
        id="path_4"
        d="M 167.126 113.798 L 163.37 113.798 C 162.512 113.795 161.675 114.065 160.981 114.568 C 160.286 115.071 159.768 115.781 159.502 116.597 C 159.237 117.412 159.237 118.292 159.502 119.107 C 159.768 119.923 160.286 120.633 160.981 121.136 C 161.675 121.639 162.512 121.909 163.37 121.906 L 167.126 121.906 C 168.199 121.903 169.227 121.474 169.984 120.714 C 170.742 119.954 171.167 118.925 171.167 117.852 C 171.167 116.779 170.742 115.75 169.984 114.99 C 169.227 114.23 168.199 113.801 167.126 113.798 Z"
        fill="#ffffff"/>
    <path
        id="path_5"
        d="M 85.166 113.699 L 81.41 113.699 C 80.552 113.696 79.715 113.966 79.021 114.469 C 78.326 114.972 77.808 115.682 77.542 116.498 C 77.277 117.313 77.277 118.193 77.542 119.008 C 77.808 119.824 78.326 120.534 79.021 121.037 C 79.715 121.54 80.552 121.81 81.41 121.807 L 85.166 121.807 C 86.024 121.81 86.861 121.54 87.555 121.037 C 88.25 120.534 88.768 119.824 89.034 119.008 C 89.299 118.193 89.299 117.313 89.034 116.498 C 88.768 115.682 88.25 114.972 87.555 114.469 C 86.861 113.966 86.024 113.696 85.166 113.699 Z"
        fill="#ffffff"/>
    <path
        id="path_6"
        d="M 124.322 82.102 C 125.397 82.102 126.429 81.675 127.189 80.915 C 127.949 80.155 128.376 79.123 128.376 78.048 L 128.376 74.292 C 128.376 73.217 127.949 72.185 127.189 71.425 C 126.429 70.665 125.397 70.238 124.322 70.238 C 123.247 70.238 122.215 70.665 121.455 71.425 C 120.695 72.185 120.268 73.217 120.268 74.292 L 120.268 78.048 C 120.268 79.123 120.695 80.155 121.455 80.915 C 122.215 81.675 123.247 82.102 124.322 82.102 Z"
        fill="#ffffff"/>
    <path
        id="path_7"
        d="M 124.224 153.507 C 123.149 153.507 122.117 153.934 121.357 154.694 C 120.597 155.454 120.17 156.486 120.17 157.561 L 120.17 161.314 C 120.17 162.17 120.441 163.004 120.944 163.697 C 121.447 164.389 122.157 164.905 122.971 165.17 C 123.785 165.434 124.663 165.434 125.477 165.17 C 126.291 164.905 127.001 164.389 127.504 163.697 C 128.007 163.004 128.278 162.17 128.278 161.314 L 128.278 157.558 C 128.277 156.484 127.849 155.453 127.09 154.693 C 126.33 153.934 125.298 153.507 124.224 153.507 Z"
        fill="#ffffff"/>
    <path
        id="path_8"
        d="M 4.054 138.862 C 3.162 138.862 2.294 139.156 1.586 139.699 C 0.877 140.242 0.368 141.004 0.137 141.866 C -0.094 142.728 -0.034 143.643 0.307 144.467 C 0.649 145.292 1.253 145.981 2.026 146.427 C 2.799 146.873 3.698 147.052 4.582 146.935 C 5.467 146.819 6.289 146.413 6.92 145.782 C 7.68 145.022 8.107 143.99 8.107 142.916 C 8.107 141.841 7.679 140.81 6.92 140.05 C 6.16 139.29 5.129 138.862 4.054 138.862 Z"
        fill="#ffffff"/>
</svg>
