<svg
    xmlns="http://www.w3.org/2000/svg"
    viewBox="0 0 125 200"
    id="vector">
    <path
        id="path"
        d="M 37.05 135.8 C 37.028 135.778 37.014 135.75 37.01 135.72 L 29.04 155.64 C 28.258 157.607 27.072 159.389 25.56 160.87 L 2.75 183.71 C 1.44 185.016 0.547 186.682 0.184 188.496 C -0.178 190.31 0.005 192.192 0.712 193.901 C 1.418 195.611 2.616 197.073 4.154 198.101 C 5.691 199.13 7.5 199.679 9.35 199.68 C 10.576 199.687 11.792 199.449 12.925 198.98 C 14.058 198.511 15.087 197.821 15.95 196.95 L 38.76 174.11 C 42.044 170.825 44.623 166.905 46.34 162.59 L 51.61 149.43 L 37.48 136.35 Z M 81.18 37.48 C 84.467 37.478 87.696 36.611 90.542 34.965 C 93.387 33.32 95.749 30.954 97.39 28.106 C 99.031 25.258 99.894 22.027 99.89 18.74 C 99.89 13.777 97.918 9.012 94.412 5.499 C 90.905 1.987 86.143 0.008 81.18 0 C 77.893 0.002 74.664 0.869 71.818 2.515 C 68.973 4.16 66.611 6.526 64.97 9.374 C 63.329 12.222 62.466 15.453 62.47 18.74 C 62.466 22.027 63.329 25.258 64.97 28.106 C 66.611 30.954 68.973 33.32 71.818 34.965 C 74.664 36.611 77.893 37.478 81.18 37.48 Z M 122.07 105.78 L 110.63 94.49 C 110.277 94.139 110.01 93.711 109.85 93.24 L 104.81 78.09 C 102.095 69.902 96.865 62.775 89.868 57.729 C 82.87 52.683 74.457 49.971 65.83 49.98 C 52.24 49.98 45.13 53.42 28.45 60.13 C 20.236 63.443 13.53 69.678 9.63 77.63 L 4 89.77 C -1.19 100.98 15.76 108.94 20.99 97.66 L 26.46 85.79 C 28.325 82.063 31.493 79.144 35.36 77.59 C 43.84 74.19 48.29 72.32 52.66 70.91 L 44.94 101.83 C 44.028 105.586 44.083 109.512 45.101 113.24 C 46.119 116.969 48.066 120.379 50.76 123.15 L 81.61 151.65 C 83.915 153.781 85.523 156.56 86.22 159.62 L 93.84 192.73 C 94.28 194.657 95.321 196.395 96.811 197.693 C 98.302 198.991 100.166 199.783 102.135 199.955 C 104.104 200.127 106.078 199.669 107.771 198.648 C 109.463 197.628 110.789 196.096 111.556 194.274 C 112.323 192.453 112.493 190.434 112.04 188.51 L 104.42 155.44 C 102.866 148.712 99.326 142.603 94.26 137.91 L 73.25 118.54 L 83.48 77.63 C 86.37 81.42 86.41 82.55 91.99 99.26 C 93.094 102.527 94.939 105.494 97.38 107.93 L 108.82 119.25 C 117.54 127.64 130.98 114.6 122.07 105.78 Z"
        fill="#474747"/>
</svg>
